G04*
G04 #@! TF.GenerationSoftware,Altium Limited,Altium Designer,21.7.2 (23)*
G04*
G04 Layer_Color=8388736*
%FSLAX25Y25*%
%MOIN*%
G70*
G04*
G04 #@! TF.SameCoordinates,180E5C44-9E76-4653-9B57-8D6C411527BD*
G04*
G04*
G04 #@! TF.FilePolarity,Negative*
G04*
G01*
G75*
%ADD15C,0.05524*%
%ADD16C,0.08674*%
%ADD17R,0.08674X0.08674*%
%ADD18R,0.06706X0.06706*%
%ADD19C,0.06706*%
%ADD20C,0.06312*%
%ADD21C,0.07887*%
%ADD22C,0.07493*%
%ADD23R,0.07493X0.07493*%
%ADD24C,0.06902*%
%ADD25R,0.06902X0.06902*%
%ADD26R,0.07099X0.07099*%
%ADD27C,0.07099*%
%ADD28R,0.14580X0.06706*%
%ADD29R,0.06706X0.14580*%
%ADD30R,0.06706X0.16548*%
%ADD31C,0.05512*%
%ADD32R,0.05512X0.05512*%
D15*
X40000Y72500D02*
D03*
X50000D02*
D03*
X102500Y52500D02*
D03*
Y42500D02*
D03*
X207500Y67500D02*
D03*
Y57500D02*
D03*
D16*
X70000Y26909D02*
D03*
D17*
Y68090D02*
D03*
D18*
X27500Y7500D02*
D03*
X206500D02*
D03*
X115000Y62500D02*
D03*
D19*
X37500Y7500D02*
D03*
X216500D02*
D03*
X115000Y52500D02*
D03*
Y42500D02*
D03*
Y32500D02*
D03*
X145000Y62500D02*
D03*
Y52500D02*
D03*
Y42500D02*
D03*
Y32500D02*
D03*
D20*
X130000Y10000D02*
D03*
X90000D02*
D03*
D21*
X87500Y74616D02*
D03*
Y20384D02*
D03*
D22*
X182500Y87500D02*
D03*
X172500D02*
D03*
D23*
X162500D02*
D03*
D24*
X150000Y15000D02*
D03*
D25*
X160000D02*
D03*
D26*
X232500Y52658D02*
D03*
D27*
Y72342D02*
D03*
D28*
X42500Y28996D02*
D03*
D29*
X30689Y47500D02*
D03*
D30*
X54311D02*
D03*
D31*
X179842Y45374D02*
D03*
X170158Y35531D02*
D03*
D32*
Y55216D02*
D03*
M02*
