G04*
G04 #@! TF.GenerationSoftware,Altium Limited,Altium Designer,21.7.2 (23)*
G04*
G04 Layer_Color=32768*
%FSLAX25Y25*%
%MOIN*%
G70*
G04*
G04 #@! TF.SameCoordinates,180E5C44-9E76-4653-9B57-8D6C411527BD*
G04*
G04*
G04 #@! TF.FilePolarity,Positive*
G04*
G01*
G75*
%ADD50C,0.00394*%
%ADD52C,0.00197*%
D50*
X170531Y87500D02*
X174469D01*
X172500Y85532D02*
Y89468D01*
X232500Y60532D02*
Y64468D01*
X230532Y62500D02*
X234469D01*
X42500Y45531D02*
Y49468D01*
X40532Y47500D02*
X44469D01*
X128032D02*
X131968D01*
X130000Y45531D02*
Y49468D01*
D52*
X166900Y15000D02*
G03*
X166900Y15000I-11900J0D01*
G01*
X193760Y77933D02*
Y98996D01*
X151240Y77933D02*
Y98996D01*
X193760D01*
X151240Y77933D02*
X193760D01*
X249035Y40059D02*
Y82579D01*
X215965D02*
X249035D01*
X215965Y40059D02*
Y82579D01*
Y40059D02*
X249035D01*
X-20Y25650D02*
Y65610D01*
X57657D01*
X-20Y25650D02*
X57657D01*
Y65610D01*
X110906Y26437D02*
Y68563D01*
X149094Y26437D02*
Y68563D01*
X110906D02*
X149094D01*
X110906Y26437D02*
X149094D01*
M02*
