G04*
G04 #@! TF.GenerationSoftware,Altium Limited,Altium Designer,21.7.2 (23)*
G04*
G04 Layer_Color=255*
%FSLAX25Y25*%
%MOIN*%
G70*
G04*
G04 #@! TF.SameCoordinates,180E5C44-9E76-4653-9B57-8D6C411527BD*
G04*
G04*
G04 #@! TF.FilePolarity,Positive*
G04*
G01*
G75*
%ADD31C,0.05512*%
%ADD32R,0.05512X0.05512*%
%ADD34C,0.04724*%
%ADD35C,0.07874*%
%ADD36R,0.07874X0.07874*%
%ADD37R,0.05906X0.05906*%
%ADD38C,0.05906*%
%ADD39C,0.07087*%
%ADD40C,0.06693*%
%ADD41R,0.06693X0.06693*%
%ADD42C,0.06102*%
%ADD43R,0.06102X0.06102*%
%ADD44R,0.06299X0.06299*%
%ADD45C,0.06299*%
%ADD46R,0.13780X0.05906*%
%ADD47R,0.05906X0.13780*%
%ADD48R,0.05906X0.15748*%
D31*
X130000Y10000D02*
D03*
X90000D02*
D03*
X179842Y45374D02*
D03*
X170158Y35531D02*
D03*
D32*
Y55216D02*
D03*
D34*
X40000Y72500D02*
D03*
X50000D02*
D03*
X102500Y52500D02*
D03*
Y42500D02*
D03*
X207500Y67500D02*
D03*
Y57500D02*
D03*
D35*
X70000Y26909D02*
D03*
D36*
Y68090D02*
D03*
D37*
X27500Y7500D02*
D03*
X206500D02*
D03*
X115000Y62500D02*
D03*
D38*
X37500Y7500D02*
D03*
X216500D02*
D03*
X115000Y52500D02*
D03*
Y42500D02*
D03*
Y32500D02*
D03*
X145000Y62500D02*
D03*
Y52500D02*
D03*
Y42500D02*
D03*
Y32500D02*
D03*
D39*
X87500Y74616D02*
D03*
Y20384D02*
D03*
D40*
X182500Y87500D02*
D03*
X172500D02*
D03*
D41*
X162500D02*
D03*
D42*
X150000Y15000D02*
D03*
D43*
X160000D02*
D03*
D44*
X232500Y52658D02*
D03*
D45*
Y72342D02*
D03*
D46*
X42500Y28996D02*
D03*
D47*
X30689Y47500D02*
D03*
D48*
X54311D02*
D03*
M02*
