G04*
G04 #@! TF.GenerationSoftware,Altium Limited,Altium Designer,21.7.2 (23)*
G04*
G04 Layer_Physical_Order=2*
G04 Layer_Color=16711680*
%FSLAX25Y25*%
%MOIN*%
G70*
G04*
G04 #@! TF.SameCoordinates,180E5C44-9E76-4653-9B57-8D6C411527BD*
G04*
G04*
G04 #@! TF.FilePolarity,Positive*
G04*
G01*
G75*
%ADD31C,0.05512*%
%ADD32R,0.05512X0.05512*%
%ADD34C,0.04724*%
%ADD35C,0.07874*%
%ADD36R,0.07874X0.07874*%
%ADD37R,0.05906X0.05906*%
%ADD38C,0.05906*%
%ADD39C,0.07087*%
%ADD40C,0.06693*%
%ADD41R,0.06693X0.06693*%
%ADD42C,0.06102*%
%ADD43R,0.06102X0.06102*%
%ADD44R,0.06299X0.06299*%
%ADD45C,0.06299*%
%ADD46R,0.13780X0.05906*%
%ADD47R,0.05906X0.13780*%
%ADD48R,0.05906X0.15748*%
G36*
X250000Y0D02*
X0D01*
Y100000D01*
X250000D01*
Y0D01*
D02*
G37*
%LPC*%
G36*
X183072Y91847D02*
X181928D01*
X180822Y91550D01*
X179831Y90978D01*
X179022Y90169D01*
X178450Y89178D01*
X178154Y88072D01*
Y86928D01*
X178450Y85822D01*
X179022Y84831D01*
X179831Y84022D01*
X180822Y83450D01*
X181928Y83153D01*
X183072D01*
X184178Y83450D01*
X185169Y84022D01*
X185978Y84831D01*
X186550Y85822D01*
X186846Y86928D01*
Y88072D01*
X186550Y89178D01*
X185978Y90169D01*
X185169Y90978D01*
X184178Y91550D01*
X183072Y91847D01*
D02*
G37*
G36*
X173072D02*
X171928D01*
X170822Y91550D01*
X169831Y90978D01*
X169022Y90169D01*
X168450Y89178D01*
X168154Y88072D01*
Y86928D01*
X168450Y85822D01*
X169022Y84831D01*
X169831Y84022D01*
X170822Y83450D01*
X171928Y83153D01*
X173072D01*
X174178Y83450D01*
X175169Y84022D01*
X175978Y84831D01*
X176550Y85822D01*
X176847Y86928D01*
Y88072D01*
X176550Y89178D01*
X175978Y90169D01*
X175169Y90978D01*
X174178Y91550D01*
X173072Y91847D01*
D02*
G37*
G36*
X166847D02*
X158153D01*
Y83153D01*
X166847D01*
Y91847D01*
D02*
G37*
G36*
X40500Y75847D02*
Y73000D01*
X43347D01*
X43133Y73798D01*
X42690Y74564D01*
X42064Y75190D01*
X41298Y75633D01*
X40500Y75847D01*
D02*
G37*
G36*
X39500D02*
X38702Y75633D01*
X37936Y75190D01*
X37310Y74564D01*
X36867Y73798D01*
X36653Y73000D01*
X39500D01*
Y75847D01*
D02*
G37*
G36*
X88098Y79159D02*
X86902D01*
X85746Y78850D01*
X84710Y78252D01*
X83864Y77406D01*
X83266Y76370D01*
X82957Y75214D01*
Y74018D01*
X83266Y72862D01*
X83864Y71826D01*
X84710Y70981D01*
X85746Y70382D01*
X86902Y70073D01*
X88098D01*
X89254Y70382D01*
X90290Y70981D01*
X91136Y71826D01*
X91734Y72862D01*
X92043Y74018D01*
Y75214D01*
X91734Y76370D01*
X91136Y77406D01*
X90290Y78252D01*
X89254Y78850D01*
X88098Y79159D01*
D02*
G37*
G36*
X43347Y72000D02*
X40500D01*
Y69153D01*
X41298Y69367D01*
X42064Y69810D01*
X42690Y70436D01*
X43133Y71202D01*
X43347Y72000D01*
D02*
G37*
G36*
X39500D02*
X36653D01*
X36867Y71202D01*
X37310Y70436D01*
X37936Y69810D01*
X38702Y69367D01*
X39500Y69153D01*
Y72000D01*
D02*
G37*
G36*
X50443Y75862D02*
X49557D01*
X48702Y75633D01*
X47936Y75190D01*
X47310Y74564D01*
X46867Y73798D01*
X46638Y72943D01*
Y72057D01*
X46867Y71202D01*
X47310Y70436D01*
X47936Y69810D01*
X48702Y69367D01*
X49557Y69138D01*
X50443D01*
X51298Y69367D01*
X52064Y69810D01*
X52690Y70436D01*
X53133Y71202D01*
X53362Y72057D01*
Y72943D01*
X53133Y73798D01*
X52690Y74564D01*
X52064Y75190D01*
X51298Y75633D01*
X50443Y75862D01*
D02*
G37*
G36*
X233046Y76492D02*
X231954D01*
X230898Y76209D01*
X229952Y75663D01*
X229180Y74890D01*
X228633Y73944D01*
X228350Y72889D01*
Y71796D01*
X228633Y70741D01*
X229180Y69795D01*
X229952Y69022D01*
X230898Y68476D01*
X231954Y68193D01*
X233046D01*
X234102Y68476D01*
X235048Y69022D01*
X235821Y69795D01*
X236367Y70741D01*
X236650Y71796D01*
Y72889D01*
X236367Y73944D01*
X235821Y74890D01*
X235048Y75663D01*
X234102Y76209D01*
X233046Y76492D01*
D02*
G37*
G36*
X207943Y70862D02*
X207057D01*
X206202Y70633D01*
X205436Y70190D01*
X204810Y69564D01*
X204367Y68798D01*
X204138Y67943D01*
Y67057D01*
X204367Y66202D01*
X204810Y65436D01*
X205436Y64810D01*
X206202Y64367D01*
X207057Y64138D01*
X207943D01*
X208798Y64367D01*
X209564Y64810D01*
X210190Y65436D01*
X210633Y66202D01*
X210862Y67057D01*
Y67943D01*
X210633Y68798D01*
X210190Y69564D01*
X209564Y70190D01*
X208798Y70633D01*
X207943Y70862D01*
D02*
G37*
G36*
X74937Y73028D02*
X65063D01*
Y63153D01*
X74937D01*
Y73028D01*
D02*
G37*
G36*
X145520Y66453D02*
X144480D01*
X143474Y66183D01*
X142573Y65663D01*
X141837Y64927D01*
X141317Y64026D01*
X141047Y63020D01*
Y61980D01*
X141317Y60974D01*
X141837Y60073D01*
X142573Y59337D01*
X143474Y58817D01*
X144480Y58547D01*
X145520D01*
X146526Y58817D01*
X147427Y59337D01*
X148163Y60073D01*
X148683Y60974D01*
X148953Y61980D01*
Y63020D01*
X148683Y64026D01*
X148163Y64927D01*
X147427Y65663D01*
X146526Y66183D01*
X145520Y66453D01*
D02*
G37*
G36*
X118953D02*
X111047D01*
Y58547D01*
X118953D01*
Y66453D01*
D02*
G37*
G36*
X208000Y60847D02*
Y58000D01*
X210847D01*
X210633Y58798D01*
X210190Y59564D01*
X209564Y60190D01*
X208798Y60633D01*
X208000Y60847D01*
D02*
G37*
G36*
X207000D02*
X206202Y60633D01*
X205436Y60190D01*
X204810Y59564D01*
X204367Y58798D01*
X204153Y58000D01*
X207000D01*
Y60847D01*
D02*
G37*
G36*
X210847Y57000D02*
X208000D01*
Y54153D01*
X208798Y54367D01*
X209564Y54810D01*
X210190Y55436D01*
X210633Y56202D01*
X210847Y57000D01*
D02*
G37*
G36*
X207000D02*
X204153D01*
X204367Y56202D01*
X204810Y55436D01*
X205436Y54810D01*
X206202Y54367D01*
X207000Y54153D01*
Y57000D01*
D02*
G37*
G36*
X236650Y56807D02*
X233000D01*
Y53158D01*
X236650D01*
Y56807D01*
D02*
G37*
G36*
X232000D02*
X228350D01*
Y53158D01*
X232000D01*
Y56807D01*
D02*
G37*
G36*
X173913Y58972D02*
X166402D01*
Y51461D01*
X173913D01*
Y58972D01*
D02*
G37*
G36*
X102943Y55862D02*
X102057D01*
X101202Y55633D01*
X100436Y55190D01*
X99810Y54564D01*
X99367Y53798D01*
X99138Y52943D01*
Y52057D01*
X99367Y51202D01*
X99810Y50436D01*
X100436Y49810D01*
X101202Y49367D01*
X102057Y49138D01*
X102943D01*
X103798Y49367D01*
X104564Y49810D01*
X105190Y50436D01*
X105633Y51202D01*
X105862Y52057D01*
Y52943D01*
X105633Y53798D01*
X105190Y54564D01*
X104564Y55190D01*
X103798Y55633D01*
X102943Y55862D01*
D02*
G37*
G36*
X145520Y56453D02*
X144480D01*
X143474Y56183D01*
X142573Y55663D01*
X141837Y54927D01*
X141317Y54026D01*
X141047Y53020D01*
Y51980D01*
X141317Y50974D01*
X141837Y50073D01*
X142573Y49337D01*
X143474Y48817D01*
X144480Y48547D01*
X145520D01*
X146526Y48817D01*
X147427Y49337D01*
X148163Y50073D01*
X148683Y50974D01*
X148953Y51980D01*
Y53020D01*
X148683Y54026D01*
X148163Y54927D01*
X147427Y55663D01*
X146526Y56183D01*
X145520Y56453D01*
D02*
G37*
G36*
X115520D02*
X114480D01*
X113474Y56183D01*
X112573Y55663D01*
X111837Y54927D01*
X111317Y54026D01*
X111047Y53020D01*
Y51980D01*
X111317Y50974D01*
X111837Y50073D01*
X112573Y49337D01*
X113474Y48817D01*
X114480Y48547D01*
X115520D01*
X116526Y48817D01*
X117427Y49337D01*
X118163Y50073D01*
X118683Y50974D01*
X118953Y51980D01*
Y53020D01*
X118683Y54026D01*
X118163Y54927D01*
X117427Y55663D01*
X116526Y56183D01*
X115520Y56453D01*
D02*
G37*
G36*
X236650Y52157D02*
X233000D01*
Y48508D01*
X236650D01*
Y52157D01*
D02*
G37*
G36*
X232000D02*
X228350D01*
Y48508D01*
X232000D01*
Y52157D01*
D02*
G37*
G36*
X34642Y55390D02*
X31189D01*
Y48000D01*
X34642D01*
Y55390D01*
D02*
G37*
G36*
X30189D02*
X26736D01*
Y48000D01*
X30189D01*
Y55390D01*
D02*
G37*
G36*
X180337Y49130D02*
X179348D01*
X178393Y48874D01*
X177536Y48379D01*
X176837Y47680D01*
X176343Y46824D01*
X176087Y45869D01*
Y44880D01*
X176343Y43924D01*
X176837Y43068D01*
X177536Y42369D01*
X178393Y41874D01*
X179348Y41618D01*
X180337D01*
X181292Y41874D01*
X182149Y42369D01*
X182848Y43068D01*
X183343Y43924D01*
X183598Y44880D01*
Y45869D01*
X183343Y46824D01*
X182848Y47680D01*
X182149Y48379D01*
X181292Y48874D01*
X180337Y49130D01*
D02*
G37*
G36*
X34642Y47000D02*
X31189D01*
Y39610D01*
X34642D01*
Y47000D01*
D02*
G37*
G36*
X30189D02*
X26736D01*
Y39610D01*
X30189D01*
Y47000D01*
D02*
G37*
G36*
X102943Y45862D02*
X102057D01*
X101202Y45633D01*
X100436Y45190D01*
X99810Y44564D01*
X99367Y43798D01*
X99138Y42943D01*
Y42057D01*
X99367Y41202D01*
X99810Y40436D01*
X100436Y39810D01*
X101202Y39367D01*
X102057Y39138D01*
X102943D01*
X103798Y39367D01*
X104564Y39810D01*
X105190Y40436D01*
X105633Y41202D01*
X105862Y42057D01*
Y42943D01*
X105633Y43798D01*
X105190Y44564D01*
X104564Y45190D01*
X103798Y45633D01*
X102943Y45862D01*
D02*
G37*
G36*
X58264Y56374D02*
X50358D01*
Y38626D01*
X58264D01*
Y56374D01*
D02*
G37*
G36*
X145520Y46453D02*
X144480D01*
X143474Y46183D01*
X142573Y45663D01*
X141837Y44927D01*
X141317Y44026D01*
X141047Y43020D01*
Y41980D01*
X141317Y40974D01*
X141837Y40073D01*
X142573Y39337D01*
X143474Y38817D01*
X144480Y38547D01*
X145520D01*
X146526Y38817D01*
X147427Y39337D01*
X148163Y40073D01*
X148683Y40974D01*
X148953Y41980D01*
Y43020D01*
X148683Y44026D01*
X148163Y44927D01*
X147427Y45663D01*
X146526Y46183D01*
X145520Y46453D01*
D02*
G37*
G36*
X115520D02*
X114480D01*
X113474Y46183D01*
X112573Y45663D01*
X111837Y44927D01*
X111317Y44026D01*
X111047Y43020D01*
Y41980D01*
X111317Y40974D01*
X111837Y40073D01*
X112573Y39337D01*
X113474Y38817D01*
X114480Y38547D01*
X115520D01*
X116526Y38817D01*
X117427Y39337D01*
X118163Y40073D01*
X118683Y40974D01*
X118953Y41980D01*
Y43020D01*
X118683Y44026D01*
X118163Y44927D01*
X117427Y45663D01*
X116526Y46183D01*
X115520Y46453D01*
D02*
G37*
G36*
X170658Y39286D02*
Y36031D01*
X173912D01*
X173657Y36981D01*
X173163Y37838D01*
X172464Y38537D01*
X171607Y39031D01*
X170658Y39286D01*
D02*
G37*
G36*
X169658D02*
X168708Y39031D01*
X167851Y38537D01*
X167152Y37838D01*
X166657Y36981D01*
X166403Y36031D01*
X169658D01*
Y39286D01*
D02*
G37*
G36*
X115520Y36453D02*
X115500D01*
Y33000D01*
X118953D01*
Y33020D01*
X118683Y34026D01*
X118163Y34927D01*
X117427Y35663D01*
X116526Y36183D01*
X115520Y36453D01*
D02*
G37*
G36*
X114500D02*
X114480D01*
X113474Y36183D01*
X112573Y35663D01*
X111837Y34927D01*
X111317Y34026D01*
X111047Y33020D01*
Y33000D01*
X114500D01*
Y36453D01*
D02*
G37*
G36*
X173912Y35032D02*
X170658D01*
Y31777D01*
X171607Y32032D01*
X172464Y32526D01*
X173163Y33225D01*
X173657Y34082D01*
X173912Y35032D01*
D02*
G37*
G36*
X169658D02*
X166403D01*
X166657Y34082D01*
X167152Y33225D01*
X167851Y32526D01*
X168708Y32032D01*
X169658Y31777D01*
Y35032D01*
D02*
G37*
G36*
X50390Y32949D02*
X43000D01*
Y29496D01*
X50390D01*
Y32949D01*
D02*
G37*
G36*
X42000D02*
X34610D01*
Y29496D01*
X42000D01*
Y32949D01*
D02*
G37*
G36*
X145520Y36453D02*
X144480D01*
X143474Y36183D01*
X142573Y35663D01*
X141837Y34927D01*
X141317Y34026D01*
X141047Y33020D01*
Y31980D01*
X141317Y30974D01*
X141837Y30073D01*
X142573Y29337D01*
X143474Y28817D01*
X144480Y28547D01*
X145520D01*
X146526Y28817D01*
X147427Y29337D01*
X148163Y30073D01*
X148683Y30974D01*
X148953Y31980D01*
Y33020D01*
X148683Y34026D01*
X148163Y34927D01*
X147427Y35663D01*
X146526Y36183D01*
X145520Y36453D01*
D02*
G37*
G36*
X118953Y32000D02*
X115500D01*
Y28547D01*
X115520D01*
X116526Y28817D01*
X117427Y29337D01*
X118163Y30073D01*
X118683Y30974D01*
X118953Y31980D01*
Y32000D01*
D02*
G37*
G36*
X114500D02*
X111047D01*
Y31980D01*
X111317Y30974D01*
X111837Y30073D01*
X112573Y29337D01*
X113474Y28817D01*
X114480Y28547D01*
X114500D01*
Y32000D01*
D02*
G37*
G36*
X50390Y28496D02*
X43000D01*
Y25043D01*
X50390D01*
Y28496D01*
D02*
G37*
G36*
X42000D02*
X34610D01*
Y25043D01*
X42000D01*
Y28496D01*
D02*
G37*
G36*
X70650Y31846D02*
X69350D01*
X68094Y31510D01*
X66969Y30860D01*
X66049Y29941D01*
X65399Y28815D01*
X65063Y27559D01*
Y26259D01*
X65399Y25004D01*
X66049Y23878D01*
X66969Y22959D01*
X68094Y22309D01*
X69350Y21972D01*
X70650D01*
X71906Y22309D01*
X73031Y22959D01*
X73951Y23878D01*
X74601Y25004D01*
X74937Y26259D01*
Y27559D01*
X74601Y28815D01*
X73951Y29941D01*
X73031Y30860D01*
X71906Y31510D01*
X70650Y31846D01*
D02*
G37*
G36*
X88098Y24927D02*
X88000D01*
Y20884D01*
X92043D01*
Y20982D01*
X91734Y22138D01*
X91136Y23174D01*
X90290Y24019D01*
X89254Y24618D01*
X88098Y24927D01*
D02*
G37*
G36*
X87000D02*
X86902D01*
X85746Y24618D01*
X84710Y24019D01*
X83864Y23174D01*
X83266Y22138D01*
X82957Y20982D01*
Y20884D01*
X87000D01*
Y24927D01*
D02*
G37*
G36*
X92043Y19884D02*
X88000D01*
Y15841D01*
X88098D01*
X89254Y16150D01*
X90290Y16748D01*
X91136Y17594D01*
X91734Y18630D01*
X92043Y19786D01*
Y19884D01*
D02*
G37*
G36*
X87000D02*
X82957D01*
Y19786D01*
X83266Y18630D01*
X83864Y17594D01*
X84710Y16748D01*
X85746Y16150D01*
X86902Y15841D01*
X87000D01*
Y19884D01*
D02*
G37*
G36*
X164051Y19051D02*
X160500D01*
Y15500D01*
X164051D01*
Y19051D01*
D02*
G37*
G36*
X159500D02*
X155949D01*
Y15500D01*
X159500D01*
Y19051D01*
D02*
G37*
G36*
X164051Y14500D02*
X160500D01*
Y10949D01*
X164051D01*
Y14500D01*
D02*
G37*
G36*
X159500D02*
X155949D01*
Y10949D01*
X159500D01*
Y14500D01*
D02*
G37*
G36*
X150533Y19051D02*
X149467D01*
X148436Y18775D01*
X147512Y18242D01*
X146758Y17488D01*
X146225Y16564D01*
X145949Y15533D01*
Y14467D01*
X146225Y13436D01*
X146758Y12513D01*
X147512Y11758D01*
X148436Y11225D01*
X149467Y10949D01*
X150533D01*
X151564Y11225D01*
X152488Y11758D01*
X153242Y12513D01*
X153775Y13436D01*
X154051Y14467D01*
Y15533D01*
X153775Y16564D01*
X153242Y17488D01*
X152488Y18242D01*
X151564Y18775D01*
X150533Y19051D01*
D02*
G37*
G36*
X217020Y11453D02*
X217000D01*
Y8000D01*
X220453D01*
Y8020D01*
X220183Y9026D01*
X219663Y9927D01*
X218927Y10663D01*
X218026Y11183D01*
X217020Y11453D01*
D02*
G37*
G36*
X216000D02*
X215980D01*
X214974Y11183D01*
X214073Y10663D01*
X213337Y9927D01*
X212817Y9026D01*
X212547Y8020D01*
Y8000D01*
X216000D01*
Y11453D01*
D02*
G37*
G36*
X38020D02*
X38000D01*
Y8000D01*
X41453D01*
Y8020D01*
X41183Y9026D01*
X40663Y9927D01*
X39927Y10663D01*
X39026Y11183D01*
X38020Y11453D01*
D02*
G37*
G36*
X37000D02*
X36980D01*
X35974Y11183D01*
X35073Y10663D01*
X34337Y9927D01*
X33817Y9026D01*
X33547Y8020D01*
Y8000D01*
X37000D01*
Y11453D01*
D02*
G37*
G36*
X130494Y13756D02*
X129506D01*
X128550Y13500D01*
X127694Y13005D01*
X126995Y12306D01*
X126500Y11450D01*
X126244Y10494D01*
Y9505D01*
X126500Y8550D01*
X126995Y7694D01*
X127694Y6995D01*
X128550Y6500D01*
X129506Y6244D01*
X130494D01*
X131450Y6500D01*
X132306Y6995D01*
X133005Y7694D01*
X133500Y8550D01*
X133756Y9505D01*
Y10494D01*
X133500Y11450D01*
X133005Y12306D01*
X132306Y13005D01*
X131450Y13500D01*
X130494Y13756D01*
D02*
G37*
G36*
X90495D02*
X89505D01*
X88550Y13500D01*
X87694Y13005D01*
X86994Y12306D01*
X86500Y11450D01*
X86244Y10494D01*
Y9505D01*
X86500Y8550D01*
X86994Y7694D01*
X87694Y6995D01*
X88550Y6500D01*
X89505Y6244D01*
X90495D01*
X91450Y6500D01*
X92306Y6995D01*
X93006Y7694D01*
X93500Y8550D01*
X93756Y9505D01*
Y10494D01*
X93500Y11450D01*
X93006Y12306D01*
X92306Y13005D01*
X91450Y13500D01*
X90495Y13756D01*
D02*
G37*
G36*
X220453Y7000D02*
X217000D01*
Y3547D01*
X217020D01*
X218026Y3817D01*
X218927Y4337D01*
X219663Y5073D01*
X220183Y5974D01*
X220453Y6980D01*
Y7000D01*
D02*
G37*
G36*
X216000D02*
X212547D01*
Y6980D01*
X212817Y5974D01*
X213337Y5073D01*
X214073Y4337D01*
X214974Y3817D01*
X215980Y3547D01*
X216000D01*
Y7000D01*
D02*
G37*
G36*
X210453Y11453D02*
X202547D01*
Y3547D01*
X210453D01*
Y11453D01*
D02*
G37*
G36*
X41453Y7000D02*
X38000D01*
Y3547D01*
X38020D01*
X39026Y3817D01*
X39927Y4337D01*
X40663Y5073D01*
X41183Y5974D01*
X41453Y6980D01*
Y7000D01*
D02*
G37*
G36*
X37000D02*
X33547D01*
Y6980D01*
X33817Y5974D01*
X34337Y5073D01*
X35073Y4337D01*
X35974Y3817D01*
X36980Y3547D01*
X37000D01*
Y7000D01*
D02*
G37*
G36*
X31453Y11453D02*
X23547D01*
Y3547D01*
X31453D01*
Y11453D01*
D02*
G37*
%LPD*%
D31*
X130000Y10000D02*
D03*
X90000D02*
D03*
X179842Y45374D02*
D03*
X170158Y35531D02*
D03*
D32*
Y55216D02*
D03*
D34*
X40000Y72500D02*
D03*
X50000D02*
D03*
X102500Y52500D02*
D03*
Y42500D02*
D03*
X207500Y67500D02*
D03*
Y57500D02*
D03*
D35*
X70000Y26909D02*
D03*
D36*
Y68090D02*
D03*
D37*
X27500Y7500D02*
D03*
X206500D02*
D03*
X115000Y62500D02*
D03*
D38*
X37500Y7500D02*
D03*
X216500D02*
D03*
X115000Y52500D02*
D03*
Y42500D02*
D03*
Y32500D02*
D03*
X145000Y62500D02*
D03*
Y52500D02*
D03*
Y42500D02*
D03*
Y32500D02*
D03*
D39*
X87500Y74616D02*
D03*
Y20384D02*
D03*
D40*
X182500Y87500D02*
D03*
X172500D02*
D03*
D41*
X162500D02*
D03*
D42*
X150000Y15000D02*
D03*
D43*
X160000D02*
D03*
D44*
X232500Y52658D02*
D03*
D45*
Y72342D02*
D03*
D46*
X42500Y28996D02*
D03*
D47*
X30689Y47500D02*
D03*
D48*
X54311D02*
D03*
M02*
