G04*
G04 #@! TF.GenerationSoftware,Altium Limited,Altium Designer,21.7.2 (23)*
G04*
G04 Layer_Color=16711935*
%FSLAX25Y25*%
%MOIN*%
G70*
G04*
G04 #@! TF.SameCoordinates,180E5C44-9E76-4653-9B57-8D6C411527BD*
G04*
G04*
G04 #@! TF.FilePolarity,Positive*
G04*
G01*
G75*
%ADD11C,0.00787*%
G36*
X176782Y43829D02*
X176778Y43798D01*
Y43767D01*
X176774Y43691D01*
X176766Y43610D01*
X176751Y43525D01*
X176736Y43445D01*
X176724Y43406D01*
X176713Y43372D01*
Y43368D01*
X176709Y43364D01*
X176701Y43341D01*
X176682Y43310D01*
X176655Y43272D01*
X176624Y43226D01*
X176582Y43180D01*
X176532Y43134D01*
X176471Y43091D01*
X176463Y43088D01*
X176440Y43076D01*
X176405Y43057D01*
X176359Y43038D01*
X176302Y43019D01*
X176236Y42999D01*
X176167Y42988D01*
X176091Y42984D01*
X176087D01*
X176079D01*
X176064D01*
X176044Y42988D01*
X176021D01*
X175995Y42992D01*
X175933Y43007D01*
X175860Y43026D01*
X175787Y43057D01*
X175710Y43103D01*
X175672Y43130D01*
X175637Y43161D01*
X175630Y43168D01*
X175622Y43180D01*
X175607Y43191D01*
X175595Y43211D01*
X175576Y43234D01*
X175561Y43260D01*
X175541Y43291D01*
X175522Y43326D01*
X175503Y43368D01*
X175484Y43410D01*
X175465Y43460D01*
X175445Y43510D01*
X175430Y43568D01*
X175419Y43629D01*
X175407Y43694D01*
X175403Y43687D01*
X175396Y43671D01*
X175384Y43648D01*
X175369Y43621D01*
X175326Y43556D01*
X175303Y43522D01*
X175280Y43495D01*
X175273Y43487D01*
X175257Y43468D01*
X175227Y43441D01*
X175188Y43406D01*
X175138Y43364D01*
X175081Y43318D01*
X175015Y43268D01*
X174942Y43218D01*
X174259Y42781D01*
Y43199D01*
X174781Y43533D01*
X174785D01*
X174793Y43541D01*
X174804Y43549D01*
X174820Y43556D01*
X174858Y43583D01*
X174908Y43618D01*
X174965Y43656D01*
X175023Y43698D01*
X175077Y43737D01*
X175127Y43775D01*
X175131Y43779D01*
X175146Y43790D01*
X175169Y43810D01*
X175196Y43829D01*
X175250Y43886D01*
X175277Y43913D01*
X175296Y43944D01*
X175300Y43948D01*
X175303Y43955D01*
X175311Y43971D01*
X175323Y43990D01*
X175346Y44036D01*
X175365Y44094D01*
Y44098D01*
X175369Y44105D01*
Y44121D01*
X175373Y44140D01*
X175376Y44167D01*
Y44197D01*
X175380Y44236D01*
Y44666D01*
X174259D01*
Y45000D01*
X176782D01*
Y43829D01*
D02*
G37*
G36*
X174328Y42627D02*
X174359Y42623D01*
X174393Y42619D01*
X174432Y42608D01*
X174470Y42596D01*
X174474D01*
X174478Y42592D01*
X174501Y42585D01*
X174531Y42569D01*
X174578Y42546D01*
X174627Y42519D01*
X174685Y42481D01*
X174743Y42443D01*
X174804Y42393D01*
X174808D01*
X174812Y42385D01*
X174835Y42366D01*
X174869Y42335D01*
X174916Y42289D01*
X174969Y42231D01*
X175035Y42162D01*
X175108Y42078D01*
X175188Y41986D01*
X175192Y41982D01*
X175204Y41966D01*
X175219Y41947D01*
X175246Y41920D01*
X175273Y41886D01*
X175307Y41847D01*
X175380Y41763D01*
X175469Y41671D01*
X175557Y41579D01*
X175599Y41532D01*
X175641Y41494D01*
X175683Y41460D01*
X175722Y41429D01*
X175726D01*
X175730Y41421D01*
X175741Y41413D01*
X175757Y41406D01*
X175795Y41383D01*
X175845Y41356D01*
X175902Y41329D01*
X175964Y41306D01*
X176033Y41291D01*
X176098Y41283D01*
X176102D01*
X176106D01*
X176129Y41287D01*
X176163Y41291D01*
X176206Y41298D01*
X176256Y41317D01*
X176306Y41341D01*
X176359Y41371D01*
X176409Y41417D01*
X176413Y41425D01*
X176428Y41440D01*
X176448Y41471D01*
X176475Y41509D01*
X176498Y41559D01*
X176517Y41617D01*
X176532Y41686D01*
X176536Y41763D01*
Y41786D01*
X176532Y41801D01*
X176528Y41840D01*
X176521Y41890D01*
X176501Y41947D01*
X176478Y42009D01*
X176444Y42066D01*
X176398Y42120D01*
X176390Y42124D01*
X176375Y42139D01*
X176344Y42162D01*
X176302Y42185D01*
X176248Y42212D01*
X176187Y42231D01*
X176114Y42247D01*
X176029Y42254D01*
X176064Y42573D01*
X176067D01*
X176079D01*
X176098Y42569D01*
X176121Y42565D01*
X176152Y42558D01*
X176187Y42554D01*
X176263Y42531D01*
X176352Y42500D01*
X176440Y42458D01*
X176528Y42400D01*
X176567Y42370D01*
X176605Y42331D01*
X176609Y42327D01*
X176613Y42320D01*
X176624Y42308D01*
X176636Y42293D01*
X176647Y42270D01*
X176667Y42243D01*
X176682Y42212D01*
X176701Y42178D01*
X176716Y42139D01*
X176736Y42097D01*
X176751Y42047D01*
X176763Y41997D01*
X176786Y41882D01*
X176789Y41820D01*
X176793Y41755D01*
Y41721D01*
X176789Y41694D01*
X176786Y41663D01*
X176782Y41629D01*
X176778Y41590D01*
X176766Y41548D01*
X176743Y41456D01*
X176709Y41360D01*
X176686Y41310D01*
X176659Y41264D01*
X176624Y41221D01*
X176590Y41179D01*
X176586Y41175D01*
X176582Y41172D01*
X176571Y41160D01*
X176555Y41145D01*
X176532Y41129D01*
X176509Y41110D01*
X176452Y41072D01*
X176379Y41033D01*
X176294Y40999D01*
X176198Y40972D01*
X176144Y40968D01*
X176091Y40964D01*
X176083D01*
X176064D01*
X176033Y40968D01*
X175995Y40972D01*
X175949Y40979D01*
X175899Y40991D01*
X175845Y41006D01*
X175791Y41029D01*
X175783Y41033D01*
X175764Y41041D01*
X175737Y41056D01*
X175699Y41079D01*
X175653Y41106D01*
X175599Y41141D01*
X175545Y41187D01*
X175484Y41237D01*
X175476Y41245D01*
X175453Y41264D01*
X175419Y41298D01*
X175396Y41321D01*
X175369Y41348D01*
X175338Y41379D01*
X175303Y41417D01*
X175269Y41456D01*
X175227Y41498D01*
X175184Y41544D01*
X175138Y41598D01*
X175092Y41651D01*
X175038Y41713D01*
X175035Y41717D01*
X175027Y41725D01*
X175015Y41740D01*
X175000Y41759D01*
X174962Y41805D01*
X174912Y41863D01*
X174858Y41920D01*
X174804Y41982D01*
X174758Y42032D01*
X174739Y42051D01*
X174720Y42070D01*
X174716Y42074D01*
X174704Y42082D01*
X174689Y42097D01*
X174666Y42116D01*
X174616Y42158D01*
X174555Y42201D01*
Y40960D01*
X174259D01*
Y42631D01*
X174263D01*
X174278D01*
X174301D01*
X174328Y42627D01*
D02*
G37*
%LPC*%
G36*
X176501Y44666D02*
X175668D01*
Y43913D01*
X175672Y43871D01*
X175676Y43821D01*
X175680Y43764D01*
X175687Y43702D01*
X175699Y43644D01*
X175714Y43595D01*
X175718Y43587D01*
X175722Y43571D01*
X175733Y43549D01*
X175749Y43522D01*
X175772Y43491D01*
X175799Y43456D01*
X175829Y43426D01*
X175864Y43399D01*
X175868Y43395D01*
X175883Y43387D01*
X175902Y43376D01*
X175933Y43364D01*
X175964Y43353D01*
X176002Y43341D01*
X176044Y43333D01*
X176091Y43330D01*
X176094D01*
X176098D01*
X176121D01*
X176152Y43337D01*
X176194Y43345D01*
X176240Y43360D01*
X176290Y43383D01*
X176340Y43418D01*
X176386Y43460D01*
X176390Y43468D01*
X176405Y43483D01*
X176425Y43518D01*
X176444Y43560D01*
X176467Y43618D01*
X176482Y43687D01*
X176498Y43771D01*
X176501Y43871D01*
Y44666D01*
D02*
G37*
%LPD*%
D11*
X165000Y59350D02*
X185000D01*
X165000Y30650D02*
Y59350D01*
Y30650D02*
X185000D01*
Y59350D01*
M02*
