M48
;Layer_Color=9474304
;FILE_FORMAT=2:5
INCH,LZ
;TYPE=PLATED
T1F00S00C0.02756
T2F00S00C0.03346
T3F00S00C0.03543
T5F00S00C0.04134
T6F00S00C0.04331
T7F00S00C0.04724
T8F00S00C0.05118
%
T01
X01025Y00425
Y00525
X02075Y00575
Y00675
X005Y00725
X004
T02
X009Y001
X013
T03
X00275Y00075
X00375
X0115Y00325
Y00425
Y00525
X0145
Y00425
Y00325
X0170158Y0035531
X0179842Y0045374
X0170158Y0055216
X02065Y00075
X02165
X0145Y00625
X0115
T05
X015Y0015
X016
T06
X02325Y0052658
Y0072342
X01825Y00875
X01725
X01625
T07
X007Y0026909
Y006809
T08
X00875Y0020384
Y0074616
M30
